<svg width="155" height="159" viewBox="0 0 155 159" fill="none" xmlns="http://www.w3.org/2000/svg">
<g opacity="0.2">
<path d="M149.875 149.617C147.997 149.617 146.474 151.14 146.474 153.018C146.474 154.896 147.997 156.418 149.875 156.418C151.753 156.418 153.275 154.896 153.275 153.018C153.275 151.14 151.753 149.617 149.875 149.617Z" fill="#090604"/>
<path d="M128.622 150.042C126.979 150.042 125.647 151.374 125.647 153.017C125.647 154.66 126.979 155.992 128.622 155.992C130.266 155.992 131.598 154.66 131.598 153.017C131.598 151.374 130.266 150.042 128.622 150.042Z" fill="#090604"/>
<path d="M107.548 150.001C106.14 150.001 104.998 151.143 104.998 152.551C104.998 153.96 106.14 155.102 107.548 155.102C108.957 155.102 110.099 153.96 110.099 152.551C110.099 151.143 108.957 150.001 107.548 150.001Z" fill="#090604"/>
<path d="M86.118 150.89C84.9442 150.89 83.9927 151.842 83.9927 153.015C83.9927 154.189 84.9442 155.141 86.1179 155.141C87.2917 155.141 88.2432 154.189 88.2432 153.015C88.2432 151.842 87.2917 150.89 86.118 150.89Z" fill="#090604"/>
<path d="M64.866 150.89C63.6923 150.89 62.7408 151.842 62.7408 153.015C62.7408 154.189 63.6923 155.141 64.866 155.141C66.0397 155.141 66.9912 154.189 66.9912 153.015C66.9912 151.842 66.0397 150.89 64.866 150.89Z" fill="#090604"/>
<path d="M43.614 150.89C42.4403 150.89 41.4888 151.842 41.4888 153.015C41.4888 154.189 42.4403 155.141 43.614 155.141C44.7878 155.141 45.7393 154.189 45.7393 153.015C45.7393 151.842 44.7878 150.89 43.614 150.89Z" fill="#090604"/>
<path d="M22.3616 150.89C21.1879 150.89 20.2364 151.842 20.2364 153.015C20.2364 154.189 21.1879 155.141 22.3616 155.141C23.5353 155.141 24.4868 154.189 24.4868 153.015C24.4868 151.842 23.5353 150.89 22.3616 150.89Z" fill="#090604"/>
<path d="M1.10965 150.89C-0.0640741 150.89 -1.01557 151.842 -1.01557 153.015C-1.01557 154.189 -0.0640745 155.141 1.10965 155.141C2.28337 155.141 3.23486 154.189 3.23486 153.015C3.23486 151.842 2.28337 150.89 1.10965 150.89Z" fill="#090604"/>
<path d="M149.875 128.363C147.997 128.363 146.474 129.886 146.474 131.764C146.474 133.642 147.997 135.164 149.875 135.164C151.753 135.164 153.275 133.642 153.275 131.764C153.275 129.886 151.753 128.363 149.875 128.363Z" fill="#090604"/>
<path d="M128.622 128.788C126.979 128.788 125.647 130.12 125.647 131.763C125.647 133.406 126.979 134.738 128.622 134.738C130.266 134.738 131.598 133.406 131.598 131.763C131.598 130.12 130.266 128.788 128.622 128.788Z" fill="#090604"/>
<path d="M107.37 129.216C105.962 129.216 104.82 130.358 104.82 131.766C104.82 133.175 105.962 134.316 107.37 134.316C108.779 134.316 109.92 133.175 109.92 131.766C109.92 130.358 108.779 129.216 107.37 129.216Z" fill="#090604"/>
<path d="M86.1187 129.216C84.7102 129.216 83.5684 130.358 83.5684 131.766C83.5684 133.175 84.7102 134.316 86.1187 134.316C87.5271 134.316 88.6689 133.175 88.6689 131.766C88.6689 130.358 87.5271 129.216 86.1187 129.216Z" fill="#090604"/>
<path d="M64.866 129.64C63.6923 129.64 62.7408 130.592 62.7408 131.765C62.7408 132.939 63.6923 133.891 64.866 133.891C66.0397 133.891 66.9912 132.939 66.9912 131.765C66.9912 130.592 66.0397 129.64 64.866 129.64Z" fill="#090604"/>
<path d="M43.614 129.64C42.4403 129.64 41.4888 130.592 41.4888 131.765C41.4888 132.939 42.4403 133.891 43.614 133.891C44.7878 133.891 45.7393 132.939 45.7393 131.765C45.7393 130.592 44.7878 129.64 43.614 129.64Z" fill="#090604"/>
<path d="M22.3616 129.64C21.1879 129.64 20.2364 130.592 20.2364 131.765C20.2364 132.939 21.1879 133.891 22.3616 133.891C23.5353 133.891 24.4868 132.939 24.4868 131.765C24.4868 130.592 23.5353 129.64 22.3616 129.64Z" fill="#090604"/>
<path d="M1.10965 129.64C-0.0640741 129.64 -1.01557 130.592 -1.01557 131.765C-1.01557 132.939 -0.0640745 133.891 1.10965 133.891C2.28337 133.891 3.23486 132.939 3.23486 131.765C3.23486 130.592 2.28337 129.64 1.10965 129.64Z" fill="#090604"/>
<path d="M149.875 107.113C147.997 107.113 146.474 108.636 146.474 110.514C146.474 112.392 147.997 113.914 149.875 113.914C151.753 113.914 153.275 112.392 153.275 110.514C153.275 108.636 151.753 107.113 149.875 107.113Z" fill="#090604"/>
<path d="M128.622 107.538C126.979 107.538 125.647 108.87 125.647 110.513C125.647 112.156 126.979 113.488 128.622 113.488C130.266 113.488 131.598 112.156 131.598 110.513C131.598 108.87 130.266 107.538 128.622 107.538Z" fill="#090604"/>
<path d="M107.37 107.538C105.727 107.538 104.395 108.87 104.395 110.513C104.395 112.156 105.727 113.488 107.37 113.488C109.014 113.488 110.346 112.156 110.346 110.513C110.346 108.87 109.014 107.538 107.37 107.538Z" fill="#090604"/>
<path d="M86.1185 107.962C84.7101 107.962 83.5683 109.104 83.5683 110.512C83.5683 111.921 84.7101 113.063 86.1185 113.063C87.527 113.063 88.6688 111.921 88.6688 110.512C88.6688 109.104 87.527 107.962 86.1185 107.962Z" fill="#090604"/>
<path d="M64.866 108.386C63.6923 108.386 62.7408 109.338 62.7408 110.512C62.7408 111.685 63.6923 112.637 64.866 112.637C66.0397 112.637 66.9912 111.685 66.9912 110.512C66.9912 109.338 66.0397 108.386 64.866 108.386Z" fill="#090604"/>
<path d="M43.614 108.386C42.4403 108.386 41.4888 109.338 41.4888 110.512C41.4888 111.685 42.4403 112.637 43.614 112.637C44.7878 112.637 45.7393 111.685 45.7393 110.512C45.7393 109.338 44.7878 108.386 43.614 108.386Z" fill="#090604"/>
<path d="M22.3616 108.386C21.1879 108.386 20.2364 109.338 20.2364 110.512C20.2364 111.685 21.1879 112.637 22.3616 112.637C23.5353 112.637 24.4868 111.685 24.4868 110.512C24.4868 109.338 23.5353 108.386 22.3616 108.386Z" fill="#090604"/>
<path d="M1.10965 108.386C-0.0640741 108.386 -1.01557 109.338 -1.01557 110.512C-1.01557 111.685 -0.0640745 112.637 1.10965 112.637C2.28337 112.637 3.23486 111.685 3.23486 110.512C3.23486 109.338 2.28337 108.386 1.10965 108.386Z" fill="#090604"/>
<path d="M149.875 85.8594C147.997 85.8594 146.474 87.3818 146.474 89.2598C146.474 91.1378 147.997 92.6602 149.875 92.6602C151.753 92.6602 153.275 91.1378 153.275 89.2598C153.275 87.3818 151.753 85.8594 149.875 85.8594Z" fill="#090604"/>
<path d="M128.622 85.4352C126.51 85.4352 124.797 87.1478 124.797 89.2605C124.797 91.3732 126.51 93.0859 128.622 93.0859C130.735 93.0859 132.448 91.3732 132.448 89.2605C132.448 87.1478 130.735 85.4352 128.622 85.4352Z" fill="#090604"/>
<path d="M107.37 86.2838C105.727 86.2838 104.395 87.6159 104.395 89.2591C104.395 90.9023 105.727 92.2344 107.37 92.2344C109.014 92.2344 110.346 90.9023 110.346 89.2591C110.346 87.6159 109.014 86.2838 107.37 86.2838Z" fill="#090604"/>
<path d="M86.1187 86.7081C84.7102 86.7081 83.5684 87.8499 83.5684 89.2583C83.5684 90.6668 84.7102 91.8086 86.1187 91.8086C87.5271 91.8086 88.6689 90.6668 88.6689 89.2583C88.6689 87.8499 87.5271 86.7081 86.1187 86.7081Z" fill="#090604"/>
<path d="M64.8662 86.7081C63.4578 86.7081 62.3159 87.8499 62.3159 89.2583C62.3159 90.6668 63.4578 91.8086 64.8662 91.8086C66.2747 91.8086 67.4165 90.6668 67.4165 89.2583C67.4165 87.8499 66.2747 86.7081 64.8662 86.7081Z" fill="#090604"/>
<path d="M43.6138 86.7081C42.2053 86.7081 41.0635 87.8499 41.0635 89.2583C41.0635 90.6668 42.2053 91.8086 43.6138 91.8086C45.0222 91.8086 46.1641 90.6668 46.1641 89.2583C46.1641 87.8499 45.0222 86.7081 43.6138 86.7081Z" fill="#090604"/>
<path d="M22.3618 86.7081C20.9534 86.7081 19.8115 87.8499 19.8115 89.2583C19.8115 90.6668 20.9534 91.8086 22.3618 91.8086C23.7703 91.8086 24.9121 90.6668 24.9121 89.2583C24.9121 87.8499 23.7703 86.7081 22.3618 86.7081Z" fill="#090604"/>
<path d="M1.10965 87.1363C-0.0640741 87.1363 -1.01557 88.0878 -1.01557 89.2615C-1.01557 90.4352 -0.0640745 91.3867 1.10965 91.3867C2.28337 91.3867 3.23486 90.4352 3.23486 89.2615C3.23486 88.0878 2.28337 87.1363 1.10965 87.1363Z" fill="#090604"/>
<path d="M149.875 64.1812C147.762 64.1812 146.049 65.8939 146.049 68.0066C146.049 70.1193 147.762 71.832 149.875 71.832C151.988 71.832 153.7 70.1193 153.7 68.0066C153.7 65.8939 151.988 64.1812 149.875 64.1812Z" fill="#090604"/>
<path d="M128.622 64.1812C126.51 64.1812 124.797 65.8939 124.797 68.0066C124.797 70.1193 126.51 71.832 128.622 71.832C130.735 71.832 132.448 70.1193 132.448 68.0066C132.448 65.8939 130.735 64.1812 128.622 64.1812Z" fill="#090604"/>
<path d="M107.37 65.0338C105.727 65.0338 104.395 66.3659 104.395 68.0091C104.395 69.6523 105.727 70.9844 107.37 70.9844C109.014 70.9844 110.346 69.6523 110.346 68.0091C110.346 66.3659 109.014 65.0338 107.37 65.0338Z" fill="#090604"/>
<path d="M86.118 65.0338C84.4748 65.0338 83.1427 66.3659 83.1427 68.0091C83.1427 69.6523 84.4748 70.9844 86.118 70.9844C87.7612 70.9844 89.0933 69.6523 89.0933 68.0091C89.0933 66.3659 87.7612 65.0338 86.118 65.0338Z" fill="#090604"/>
<path d="M64.8665 65.0338C63.2233 65.0338 61.8912 66.3659 61.8912 68.0091C61.8912 69.6523 63.2233 70.9844 64.8665 70.9844C66.5097 70.9844 67.8418 69.6523 67.8418 68.0091C67.8418 66.3659 66.5097 65.0338 64.8665 65.0338Z" fill="#090604"/>
<path d="M43.6141 65.0338C41.9709 65.0338 40.6388 66.3659 40.6388 68.0091C40.6388 69.6523 41.9709 70.9844 43.6141 70.9844C45.2573 70.9844 46.5894 69.6523 46.5894 68.0091C46.5894 66.3659 45.2573 65.0338 43.6141 65.0338Z" fill="#090604"/>
<path d="M22.3617 65.4578C20.9532 65.4578 19.8114 66.5996 19.8114 68.0081C19.8114 69.4166 20.9532 70.5583 22.3617 70.5583C23.7702 70.5583 24.912 69.4166 24.912 68.0081C24.912 66.5996 23.7702 65.4578 22.3617 65.4578Z" fill="#090604"/>
<path d="M1.10945 65.4578C-0.299022 65.4578 -1.44084 66.5996 -1.44084 68.0081C-1.44084 69.4166 -0.299022 70.5583 1.10945 70.5583C2.51791 70.5583 3.65973 69.4166 3.65973 68.0081C3.65973 66.5996 2.51791 65.4578 1.10945 65.4578Z" fill="#090604"/>
<path d="M149.875 42.9312C147.762 42.9312 146.049 44.6439 146.049 46.7566C146.049 48.8693 147.762 50.582 149.875 50.582C151.988 50.582 153.7 48.8693 153.7 46.7566C153.7 44.6439 151.988 42.9312 149.875 42.9312Z" fill="#090604"/>
<path d="M128.622 42.9312C126.51 42.9312 124.797 44.6439 124.797 46.7566C124.797 48.8693 126.51 50.582 128.622 50.582C130.735 50.582 132.448 48.8693 132.448 46.7566C132.448 44.6439 130.735 42.9312 128.622 42.9312Z" fill="#090604"/>
<path d="M107.37 42.9312C105.257 42.9312 103.545 44.6439 103.545 46.7566C103.545 48.8693 105.257 50.582 107.37 50.582C109.483 50.582 111.195 48.8693 111.195 46.7566C111.195 44.6439 109.483 42.9312 107.37 42.9312Z" fill="#090604"/>
<path d="M86.118 43.7799C84.4748 43.7799 83.1427 45.112 83.1427 46.7552C83.1427 48.3984 84.4748 49.7305 86.118 49.7305C87.7612 49.7305 89.0933 48.3984 89.0933 46.7552C89.0933 45.112 87.7612 43.7799 86.118 43.7799Z" fill="#090604"/>
<path d="M64.8665 43.7799C63.2233 43.7799 61.8912 45.112 61.8912 46.7552C61.8912 48.3984 63.2233 49.7305 64.8665 49.7305C66.5097 49.7305 67.8418 48.3984 67.8418 46.7552C67.8418 45.112 66.5097 43.7799 64.8665 43.7799Z" fill="#090604"/>
<path d="M43.6141 43.7799C41.9709 43.7799 40.6388 45.112 40.6388 46.7552C40.6388 48.3984 41.9709 49.7305 43.6141 49.7305C45.2573 49.7305 46.5894 48.3984 46.5894 46.7552C46.5894 45.112 45.2573 43.7799 43.6141 43.7799Z" fill="#090604"/>
<path d="M22.3618 44.2042C20.9534 44.2042 19.8115 45.346 19.8115 46.7544C19.8115 48.1629 20.9534 49.3047 22.3618 49.3047C23.7703 49.3047 24.9121 48.1629 24.9121 46.7544C24.9121 45.346 23.7703 44.2042 22.3618 44.2042Z" fill="#090604"/>
<path d="M1.10939 44.2042C-0.299083 44.2042 -1.4409 45.346 -1.4409 46.7544C-1.4409 48.1629 -0.299083 49.3047 1.10938 49.3047C2.51785 49.3047 3.65967 48.1629 3.65967 46.7544C3.65967 45.346 2.51785 44.2042 1.10939 44.2042Z" fill="#090604"/>
<path d="M149.875 21.6773C147.762 21.6773 146.049 23.39 146.049 25.5027C146.049 27.6154 147.762 29.3281 149.875 29.3281C151.988 29.3281 153.7 27.6154 153.7 25.5027C153.7 23.39 151.988 21.6773 149.875 21.6773Z" fill="#090604"/>
<path d="M128.622 21.6773C126.51 21.6773 124.797 23.39 124.797 25.5027C124.797 27.6154 126.51 29.3281 128.622 29.3281C130.735 29.3281 132.448 27.6154 132.448 25.5027C132.448 23.39 130.735 21.6773 128.622 21.6773Z" fill="#090604"/>
<path d="M107.37 21.6773C105.257 21.6773 103.545 23.39 103.545 25.5027C103.545 27.6154 105.257 29.3281 107.37 29.3281C109.483 29.3281 111.195 27.6154 111.195 25.5027C111.195 23.39 109.483 21.6773 107.37 21.6773Z" fill="#090604"/>
<path d="M86.1185 21.6773C84.0058 21.6773 82.2931 23.39 82.2931 25.5027C82.2931 27.6154 84.0058 29.3281 86.1185 29.3281C88.2312 29.3281 89.9438 27.6154 89.9438 25.5027C89.9438 23.39 88.2312 21.6773 86.1185 21.6773Z" fill="#090604"/>
<path d="M64.866 21.6773C62.7533 21.6773 61.0407 23.39 61.0407 25.5027C61.0407 27.6154 62.7533 29.3281 64.866 29.3281C66.9787 29.3281 68.6914 27.6154 68.6914 25.5027C68.6914 23.39 66.9787 21.6773 64.866 21.6773Z" fill="#090604"/>
<path d="M43.6141 22.5299C41.9709 22.5299 40.6388 23.862 40.6388 25.5052C40.6388 27.1484 41.9709 28.4805 43.6141 28.4805C45.2573 28.4805 46.5894 27.1484 46.5894 25.5052C46.5894 23.862 45.2573 22.5299 43.6141 22.5299Z" fill="#090604"/>
<path d="M22.3616 22.5299C20.7184 22.5299 19.3863 23.862 19.3863 25.5052C19.3863 27.1484 20.7184 28.4805 22.3616 28.4805C24.0048 28.4805 25.3369 27.1484 25.3369 25.5052C25.3369 23.862 24.0048 22.5299 22.3616 22.5299Z" fill="#090604"/>
<path d="M1.10967 22.5299C-0.533538 22.5299 -1.86561 23.862 -1.86561 25.5052C-1.86561 27.1484 -0.533539 28.4805 1.10967 28.4805C2.75289 28.4805 4.08496 27.1484 4.08496 25.5052C4.08496 23.862 2.75289 22.5299 1.10967 22.5299Z" fill="#090604"/>
<path d="M149.875 0.00304853C147.527 0.00304832 145.624 1.90603 145.624 4.25348C145.624 6.60092 147.527 8.50391 149.875 8.50391C152.222 8.50391 154.125 6.60092 154.125 4.25348C154.125 1.90603 152.222 0.00304873 149.875 0.00304853Z" fill="#090604"/>
<path d="M128.622 0.427405C126.51 0.427405 124.797 2.14006 124.797 4.25276C124.797 6.36547 126.51 8.07812 128.622 8.07812C130.735 8.07812 132.448 6.36547 132.448 4.25277C132.448 2.14006 130.735 0.427405 128.622 0.427405Z" fill="#090604"/>
<path d="M107.37 0.427405C105.257 0.427405 103.545 2.14006 103.545 4.25276C103.545 6.36547 105.257 8.07812 107.37 8.07812C109.483 8.07812 111.195 6.36547 111.195 4.25277C111.195 2.14006 109.483 0.427405 107.37 0.427405Z" fill="#090604"/>
<path d="M86.1185 0.427405C84.0058 0.427405 82.2931 2.14006 82.2931 4.25276C82.2931 6.36547 84.0058 8.07812 86.1185 8.07812C88.2312 8.07812 89.9438 6.36547 89.9438 4.25277C89.9438 2.14006 88.2312 0.427405 86.1185 0.427405Z" fill="#090604"/>
<path d="M64.8662 0.851388C62.9883 0.851388 61.4659 2.37379 61.4659 4.25174C61.4659 6.1297 62.9883 7.6521 64.8662 7.6521C66.7442 7.6521 68.2666 6.1297 68.2666 4.25174C68.2666 2.37379 66.7442 0.851388 64.8662 0.851388Z" fill="#090604"/>
<path d="M43.6139 0.851388C41.736 0.851388 40.2136 2.37379 40.2136 4.25174C40.2136 6.1297 41.736 7.6521 43.6139 7.6521C45.4919 7.6521 47.0143 6.1297 47.0143 4.25174C47.0143 2.37379 45.4919 0.851388 43.6139 0.851388Z" fill="#090604"/>
<path d="M22.3617 0.851388C20.4837 0.851388 18.9613 2.37379 18.9613 4.25174C18.9613 6.1297 20.4837 7.6521 22.3617 7.6521C24.2396 7.6521 25.762 6.1297 25.762 4.25174C25.762 2.37379 24.2396 0.851388 22.3617 0.851388Z" fill="#090604"/>
<path d="M1.10941 0.851388C-0.768547 0.851388 -2.29095 2.37379 -2.29095 4.25174C-2.29095 6.1297 -0.768548 7.6521 1.10941 7.6521C2.98737 7.6521 4.50977 6.1297 4.50977 4.25174C4.50977 2.37379 2.98737 0.851388 1.10941 0.851388Z" fill="#090604"/>
</g>
</svg>
