<svg width="348" height="128" viewBox="0 0 348 128" fill="none" xmlns="http://www.w3.org/2000/svg">
<g clip-path="url(#clip0_2583_1106)">
<g opacity="0.3">
<path d="M343.732 123.324C342.558 123.324 341.607 124.275 341.607 125.449C341.607 126.623 342.558 127.574 343.732 127.574C344.906 127.574 345.857 126.623 345.857 125.449C345.857 124.275 344.906 123.324 343.732 123.324Z" fill="#FF882E"/>
<path d="M322.48 123.324C321.307 123.324 320.355 124.275 320.355 125.449C320.355 126.623 321.307 127.574 322.48 127.574C323.654 127.574 324.606 126.623 324.606 125.449C324.606 124.275 323.654 123.324 322.48 123.324Z" fill="#FF882E"/>
<path d="M301.228 122.899C299.82 122.899 298.678 124.041 298.678 125.45C298.678 126.858 299.82 128 301.228 128C302.637 128 303.779 126.858 303.779 125.45C303.779 124.041 302.637 122.899 301.228 122.899Z" fill="#FF882E"/>
<path d="M279.976 122.899C278.567 122.899 277.426 124.041 277.426 125.45C277.426 126.858 278.567 128 279.976 128C281.384 128 282.526 126.858 282.526 125.45C282.526 124.041 281.384 122.899 279.976 122.899Z" fill="#FF882E"/>
<path d="M258.724 122.899C257.315 122.899 256.173 124.041 256.173 125.45C256.173 126.858 257.315 128 258.724 128C260.132 128 261.274 126.858 261.274 125.45C261.274 124.041 260.132 122.899 258.724 122.899Z" fill="#FF882E"/>
<path d="M237.472 122.899C236.064 122.899 234.922 124.041 234.922 125.45C234.922 126.858 236.064 128 237.472 128C238.881 128 240.022 126.858 240.022 125.45C240.022 124.041 238.881 122.899 237.472 122.899Z" fill="#FF882E"/>
<path d="M216.22 122.899C214.811 122.899 213.669 124.041 213.669 125.45C213.669 126.858 214.811 128 216.22 128C217.628 128 218.77 126.858 218.77 125.45C218.77 124.041 217.628 122.899 216.22 122.899Z" fill="#FF882E"/>
<path d="M194.968 123.324C193.794 123.324 192.842 124.275 192.842 125.449C192.842 126.623 193.794 127.574 194.968 127.574C196.141 127.574 197.093 126.623 197.093 125.449C197.093 124.275 196.141 123.324 194.968 123.324Z" fill="#FF882E"/>
<path d="M173.715 123.324C172.542 123.324 171.59 124.275 171.59 125.449C171.59 126.623 172.542 127.574 173.715 127.574C174.889 127.574 175.841 126.623 175.841 125.449C175.841 124.275 174.889 123.324 173.715 123.324Z" fill="#FF882E"/>
<path d="M152.463 123.324C151.289 123.324 150.338 124.275 150.338 125.449C150.338 126.623 151.289 127.574 152.463 127.574C153.637 127.574 154.588 126.623 154.588 125.449C154.588 124.275 153.637 123.324 152.463 123.324Z" fill="#FF882E"/>
<path d="M131.211 123.324C130.037 123.324 129.086 124.275 129.086 125.449C129.086 126.623 130.037 127.574 131.211 127.574C132.384 127.574 133.336 126.623 133.336 125.449C133.336 124.275 132.384 123.324 131.211 123.324Z" fill="#FF882E"/>
<path d="M109.959 123.324C108.785 123.324 107.834 124.275 107.834 125.449C107.834 126.623 108.785 127.574 109.959 127.574C111.133 127.574 112.084 126.623 112.084 125.449C112.084 124.275 111.133 123.324 109.959 123.324Z" fill="#FF882E"/>
<path d="M88.7068 123.324C87.5331 123.324 86.5816 124.275 86.5816 125.449C86.5816 126.623 87.5331 127.574 88.7068 127.574C89.8805 127.574 90.832 126.623 90.832 125.449C90.832 124.275 89.8805 123.324 88.7068 123.324Z" fill="#FF882E"/>
<path d="M67.4546 123.324C66.2809 123.324 65.3294 124.275 65.3294 125.449C65.3294 126.623 66.2809 127.574 67.4546 127.574C68.6283 127.574 69.5798 126.623 69.5798 125.449C69.5798 124.275 68.6283 123.324 67.4546 123.324Z" fill="#FF882E"/>
<path d="M46.2022 123.324C45.0285 123.324 44.077 124.275 44.077 125.449C44.077 126.623 45.0285 127.574 46.2022 127.574C47.3759 127.574 48.3274 126.623 48.3274 125.449C48.3274 124.275 47.3759 123.324 46.2022 123.324Z" fill="#FF882E"/>
<path d="M24.9507 123.324C23.777 123.324 22.8255 124.275 22.8255 125.449C22.8255 126.623 23.777 127.574 24.9507 127.574C26.1244 127.574 27.0759 126.623 27.0759 125.449C27.0759 124.275 26.1244 123.324 24.9507 123.324Z" fill="#FF882E"/>
<path d="M3.69827 123.324C2.52455 123.324 1.57306 124.275 1.57306 125.449C1.57306 126.623 2.52455 127.574 3.69827 127.574C4.872 127.574 5.82349 126.623 5.82349 125.449C5.82349 124.275 4.872 123.324 3.69827 123.324Z" fill="#FF882E"/>
<path d="M343.733 101.221C342.09 101.221 340.757 102.553 340.757 104.197C340.757 105.84 342.09 107.172 343.733 107.172C345.376 107.172 346.708 105.84 346.708 104.197C346.708 102.553 345.376 101.221 343.733 101.221Z" fill="#FF882E"/>
<path d="M322.481 101.221C320.837 101.221 319.505 102.553 319.505 104.197C319.505 105.84 320.837 107.172 322.481 107.172C324.124 107.172 325.456 105.84 325.456 104.197C325.456 102.553 324.124 101.221 322.481 101.221Z" fill="#FF882E"/>
<path d="M301.228 101.221C299.585 101.221 298.253 102.553 298.253 104.197C298.253 105.84 299.585 107.172 301.228 107.172C302.872 107.172 304.204 105.84 304.204 104.197C304.204 102.553 302.872 101.221 301.228 101.221Z" fill="#FF882E"/>
<path d="M279.976 101.221C278.333 101.221 277.001 102.553 277.001 104.197C277.001 105.84 278.333 107.172 279.976 107.172C281.619 107.172 282.951 105.84 282.951 104.197C282.951 102.553 281.619 101.221 279.976 101.221Z" fill="#FF882E"/>
<path d="M258.724 102.074C257.55 102.074 256.599 103.025 256.599 104.199C256.599 105.373 257.55 106.324 258.724 106.324C259.898 106.324 260.849 105.373 260.849 104.199C260.849 103.025 259.898 102.074 258.724 102.074Z" fill="#FF882E"/>
<path d="M237.472 101.221C235.829 101.221 234.497 102.553 234.497 104.197C234.497 105.84 235.829 107.172 237.472 107.172C239.115 107.172 240.447 105.84 240.447 104.197C240.447 102.553 239.115 101.221 237.472 101.221Z" fill="#FF882E"/>
<path d="M216.22 101.221C214.577 101.221 213.244 102.553 213.244 104.197C213.244 105.84 214.577 107.172 216.22 107.172C217.863 107.172 219.195 105.84 219.195 104.197C219.195 102.553 217.863 101.221 216.22 101.221Z" fill="#FF882E"/>
<path d="M194.968 101.646C193.559 101.646 192.417 102.787 192.417 104.196C192.417 105.604 193.559 106.746 194.968 106.746C196.376 106.746 197.518 105.604 197.518 104.196C197.518 102.787 196.376 101.646 194.968 101.646Z" fill="#FF882E"/>
<path d="M173.715 101.646C172.307 101.646 171.165 102.787 171.165 104.196C171.165 105.604 172.307 106.746 173.715 106.746C175.124 106.746 176.266 105.604 176.266 104.196C176.266 102.787 175.124 101.646 173.715 101.646Z" fill="#FF882E"/>
<path d="M152.463 102.074C151.289 102.074 150.338 103.025 150.338 104.199C150.338 105.373 151.289 106.324 152.463 106.324C153.637 106.324 154.588 105.373 154.588 104.199C154.588 103.025 153.637 102.074 152.463 102.074Z" fill="#FF882E"/>
<path d="M131.211 102.074C130.037 102.074 129.086 103.025 129.086 104.199C129.086 105.373 130.037 106.324 131.211 106.324C132.384 106.324 133.336 105.373 133.336 104.199C133.336 103.025 132.384 102.074 131.211 102.074Z" fill="#FF882E"/>
<path d="M109.959 102.074C108.785 102.074 107.834 103.025 107.834 104.199C107.834 105.373 108.785 106.324 109.959 106.324C111.133 106.324 112.084 105.373 112.084 104.199C112.084 103.025 111.133 102.074 109.959 102.074Z" fill="#FF882E"/>
<path d="M88.7068 102.074C87.5331 102.074 86.5816 103.025 86.5816 104.199C86.5816 105.373 87.5331 106.324 88.7068 106.324C89.8805 106.324 90.832 105.373 90.832 104.199C90.832 103.025 89.8805 102.074 88.7068 102.074Z" fill="#FF882E"/>
<path d="M67.4546 102.074C66.2809 102.074 65.3294 103.025 65.3294 104.199C65.3294 105.373 66.2809 106.324 67.4546 106.324C68.6283 106.324 69.5798 105.373 69.5798 104.199C69.5798 103.025 68.6283 102.074 67.4546 102.074Z" fill="#FF882E"/>
<path d="M46.2022 102.074C45.0285 102.074 44.077 103.025 44.077 104.199C44.077 105.373 45.0285 106.324 46.2022 106.324C47.3759 106.324 48.3274 105.373 48.3274 104.199C48.3274 103.025 47.3759 102.074 46.2022 102.074Z" fill="#FF882E"/>
<path d="M24.9507 102.074C23.777 102.074 22.8255 103.025 22.8255 104.199C22.8255 105.373 23.777 106.324 24.9507 106.324C26.1244 106.324 27.0759 105.373 27.0759 104.199C27.0759 103.025 26.1244 102.074 24.9507 102.074Z" fill="#FF882E"/>
<path d="M3.69827 102.074C2.52455 102.074 1.57306 103.025 1.57306 104.199C1.57306 105.373 2.52455 106.324 3.69827 106.324C4.872 106.324 5.82349 105.373 5.82349 104.199C5.82349 103.025 4.872 102.074 3.69827 102.074Z" fill="#FF882E"/>
<path d="M343.732 79.547C341.854 79.547 340.332 81.0694 340.332 82.9473C340.332 84.8253 341.854 86.3477 343.732 86.3477C345.61 86.3477 347.133 84.8253 347.133 82.9473C347.133 81.0694 345.61 79.547 343.732 79.547Z" fill="#FF882E"/>
<path d="M322.481 79.547C320.603 79.547 319.08 81.0694 319.08 82.9473C319.08 84.8253 320.603 86.3477 322.481 86.3477C324.358 86.3477 325.881 84.8253 325.881 82.9473C325.881 81.0694 324.358 79.547 322.481 79.547Z" fill="#FF882E"/>
<path d="M301.228 79.547C299.35 79.547 297.828 81.0694 297.828 82.9473C297.828 84.8253 299.35 86.3477 301.228 86.3477C303.106 86.3477 304.628 84.8253 304.628 82.9473C304.628 81.0694 303.106 79.547 301.228 79.547Z" fill="#FF882E"/>
<path d="M279.976 79.547C278.098 79.547 276.576 81.0694 276.576 82.9473C276.576 84.8253 278.098 86.3477 279.976 86.3477C281.854 86.3477 283.376 84.8253 283.376 82.9473C283.376 81.0694 281.854 79.547 279.976 79.547Z" fill="#FF882E"/>
<path d="M258.724 79.547C256.846 79.547 255.323 81.0694 255.323 82.9473C255.323 84.8253 256.846 86.3477 258.724 86.3477C260.602 86.3477 262.124 84.8253 262.124 82.9473C262.124 81.0694 260.602 79.547 258.724 79.547Z" fill="#FF882E"/>
<path d="M237.472 79.9713C235.829 79.9713 234.497 81.3034 234.497 82.9466C234.497 84.5898 235.829 85.9219 237.472 85.9219C239.115 85.9219 240.447 84.5898 240.447 82.9466C240.447 81.3034 239.115 79.9713 237.472 79.9713Z" fill="#FF882E"/>
<path d="M216.22 79.9713C214.577 79.9713 213.244 81.3034 213.244 82.9466C213.244 84.5898 214.577 85.9219 216.22 85.9219C217.863 85.9219 219.195 84.5898 219.195 82.9466C219.195 81.3034 217.863 79.9713 216.22 79.9713Z" fill="#FF882E"/>
<path d="M194.968 79.9713C193.324 79.9713 191.992 81.3034 191.992 82.9466C191.992 84.5898 193.324 85.9219 194.968 85.9219C196.611 85.9219 197.943 84.5898 197.943 82.9466C197.943 81.3034 196.611 79.9713 194.968 79.9713Z" fill="#FF882E"/>
<path d="M173.715 80.8199C172.542 80.8199 171.59 81.7714 171.59 82.9451C171.59 84.1188 172.542 85.0703 173.715 85.0703C174.889 85.0703 175.841 84.1188 175.841 82.9451C175.841 81.7714 174.889 80.8199 173.715 80.8199Z" fill="#FF882E"/>
<path d="M152.463 80.8199C151.289 80.8199 150.338 81.7714 150.338 82.9451C150.338 84.1188 151.289 85.0703 152.463 85.0703C153.637 85.0703 154.588 84.1188 154.588 82.9451C154.588 81.7714 153.637 80.8199 152.463 80.8199Z" fill="#FF882E"/>
<path d="M131.211 80.8199C130.037 80.8199 129.086 81.7714 129.086 82.9451C129.086 84.1188 130.037 85.0703 131.211 85.0703C132.384 85.0703 133.336 84.1188 133.336 82.9451C133.336 81.7714 132.384 80.8199 131.211 80.8199Z" fill="#FF882E"/>
<path d="M109.959 80.8199C108.785 80.8199 107.834 81.7714 107.834 82.9451C107.834 84.1188 108.785 85.0703 109.959 85.0703C111.133 85.0703 112.084 84.1188 112.084 82.9451C112.084 81.7714 111.133 80.8199 109.959 80.8199Z" fill="#FF882E"/>
<path d="M88.7068 80.8199C87.5331 80.8199 86.5816 81.7714 86.5816 82.9451C86.5816 84.1188 87.5331 85.0703 88.7068 85.0703C89.8805 85.0703 90.832 84.1188 90.832 82.9451C90.832 81.7714 89.8805 80.8199 88.7068 80.8199Z" fill="#FF882E"/>
<path d="M67.4546 80.8199C66.2809 80.8199 65.3294 81.7714 65.3294 82.9451C65.3294 84.1188 66.2809 85.0703 67.4546 85.0703C68.6283 85.0703 69.5798 84.1188 69.5798 82.9451C69.5798 81.7714 68.6283 80.8199 67.4546 80.8199Z" fill="#FF882E"/>
<path d="M46.2029 80.3956C44.7944 80.3956 43.6526 81.5374 43.6526 82.9458C43.6526 84.3543 44.7944 85.4961 46.2029 85.4961C47.6114 85.4961 48.7532 84.3543 48.7532 82.9458C48.7532 81.5374 47.6114 80.3956 46.2029 80.3956Z" fill="#FF882E"/>
<path d="M24.9504 80.3956C23.542 80.3956 22.4002 81.5374 22.4002 82.9458C22.4002 84.3543 23.542 85.4961 24.9504 85.4961C26.3589 85.4961 27.5007 84.3543 27.5007 82.9458C27.5007 81.5374 26.3589 80.3956 24.9504 80.3956Z" fill="#FF882E"/>
<path d="M3.69825 80.3956C2.28978 80.3956 1.14797 81.5374 1.14797 82.9458C1.14797 84.3543 2.28978 85.4961 3.69825 85.4961C5.10672 85.4961 6.24854 84.3543 6.24854 82.9458C6.24854 81.5374 5.10672 80.3956 3.69825 80.3956Z" fill="#FF882E"/>
<path d="M343.733 58.7174C342.09 58.7174 340.757 60.0495 340.757 61.6927C340.757 63.3359 342.09 64.668 343.733 64.668C345.376 64.668 346.708 63.3359 346.708 61.6927C346.708 60.0495 345.376 58.7174 343.733 58.7174Z" fill="#FF882E"/>
<path d="M322.481 58.7174C320.837 58.7174 319.505 60.0495 319.505 61.6927C319.505 63.3359 320.837 64.668 322.481 64.668C324.124 64.668 325.456 63.3359 325.456 61.6927C325.456 60.0495 324.124 58.7174 322.481 58.7174Z" fill="#FF882E"/>
<path d="M301.228 58.2931C299.35 58.2931 297.828 59.8155 297.828 61.6934C297.828 63.5714 299.35 65.0937 301.228 65.0937C303.106 65.0937 304.628 63.5714 304.628 61.6934C304.628 59.8155 303.106 58.2931 301.228 58.2931Z" fill="#FF882E"/>
<path d="M279.976 58.2931C278.098 58.2931 276.576 59.8155 276.576 61.6934C276.576 63.5714 278.098 65.0937 279.976 65.0937C281.854 65.0937 283.376 63.5714 283.376 61.6934C283.376 59.8155 281.854 58.2931 279.976 58.2931Z" fill="#FF882E"/>
<path d="M258.724 57.8688C256.611 57.8688 254.899 59.5814 254.899 61.6941C254.899 63.8068 256.611 65.5195 258.724 65.5195C260.837 65.5195 262.55 63.8068 262.55 61.6941C262.55 59.5814 260.837 57.8688 258.724 57.8688Z" fill="#FF882E"/>
<path d="M237.472 57.8688C235.359 57.8688 233.647 59.5814 233.647 61.6941C233.647 63.8068 235.359 65.5195 237.472 65.5195C239.585 65.5195 241.297 63.8068 241.297 61.6941C241.297 59.5814 239.585 57.8688 237.472 57.8688Z" fill="#FF882E"/>
<path d="M216.22 57.8688C214.107 57.8688 212.394 59.5814 212.394 61.6941C212.394 63.8068 214.107 65.5195 216.22 65.5195C218.333 65.5195 220.045 63.8068 220.045 61.6941C220.045 59.5814 218.333 57.8688 216.22 57.8688Z" fill="#FF882E"/>
<path d="M194.967 57.8688C192.855 57.8688 191.142 59.5814 191.142 61.6941C191.142 63.8068 192.855 65.5195 194.967 65.5195C197.08 65.5195 198.793 63.8068 198.793 61.6941C198.793 59.5814 197.08 57.8688 194.967 57.8688Z" fill="#FF882E"/>
<path d="M173.715 58.7174C172.072 58.7174 170.74 60.0495 170.74 61.6927C170.74 63.3359 172.072 64.668 173.715 64.668C175.358 64.668 176.69 63.3359 176.69 61.6927C176.69 60.0495 175.358 58.7174 173.715 58.7174Z" fill="#FF882E"/>
<path d="M152.464 59.1417C151.055 59.1417 149.913 60.2835 149.913 61.6919C149.913 63.1004 151.055 64.2422 152.464 64.2422C153.872 64.2422 155.014 63.1004 155.014 61.6919C155.014 60.2835 153.872 59.1417 152.464 59.1417Z" fill="#FF882E"/>
<path d="M131.211 59.5699C130.037 59.5699 129.086 60.5214 129.086 61.6951C129.086 62.8688 130.037 63.8203 131.211 63.8203C132.384 63.8203 133.336 62.8688 133.336 61.6951C133.336 60.5214 132.384 59.5699 131.211 59.5699Z" fill="#FF882E"/>
<path d="M109.959 59.5699C108.785 59.5699 107.834 60.5214 107.834 61.6951C107.834 62.8688 108.785 63.8203 109.959 63.8203C111.133 63.8203 112.084 62.8688 112.084 61.6951C112.084 60.5214 111.133 59.5699 109.959 59.5699Z" fill="#FF882E"/>
<path d="M88.7068 59.5699C87.5331 59.5699 86.5816 60.5214 86.5816 61.6951C86.5816 62.8688 87.5331 63.8203 88.7068 63.8203C89.8805 63.8203 90.832 62.8688 90.832 61.6951C90.832 60.5214 89.8805 59.5699 88.7068 59.5699Z" fill="#FF882E"/>
<path d="M67.4544 59.1417C66.0459 59.1417 64.9041 60.2835 64.9041 61.6919C64.9041 63.1004 66.0459 64.2422 67.4544 64.2422C68.8628 64.2422 70.0046 63.1004 70.0046 61.6919C70.0046 60.2835 68.8628 59.1417 67.4544 59.1417Z" fill="#FF882E"/>
<path d="M46.2029 59.1417C44.7944 59.1417 43.6526 60.2835 43.6526 61.6919C43.6526 63.1004 44.7944 64.2422 46.2029 64.2422C47.6114 64.2422 48.7532 63.1004 48.7532 61.6919C48.7532 60.2835 47.6114 59.1417 46.2029 59.1417Z" fill="#FF882E"/>
<path d="M24.9504 59.1417C23.542 59.1417 22.4002 60.2835 22.4002 61.6919C22.4002 63.1004 23.542 64.2422 24.9504 64.2422C26.3589 64.2422 27.5007 63.1004 27.5007 61.6919C27.5007 60.2835 26.3589 59.1417 24.9504 59.1417Z" fill="#FF882E"/>
<path d="M3.69825 59.1417C2.28978 59.1417 1.14797 60.2835 1.14797 61.6919C1.14797 63.1004 2.28978 64.2422 3.69825 64.2422C5.10672 64.2422 6.24854 63.1004 6.24854 61.6919C6.24854 60.2835 5.10672 59.1417 3.69825 59.1417Z" fill="#FF882E"/>
<path d="M343.733 37.8917C342.324 37.8917 341.182 39.0335 341.182 40.4419C341.182 41.8504 342.324 42.9922 343.733 42.9922C345.141 42.9922 346.283 41.8504 346.283 40.4419C346.283 39.0335 345.141 37.8917 343.733 37.8917Z" fill="#FF882E"/>
<path d="M322.48 37.8917C321.072 37.8917 319.93 39.0335 319.93 40.4419C319.93 41.8504 321.072 42.9922 322.48 42.9922C323.889 42.9922 325.031 41.8504 325.031 40.4419C325.031 39.0335 323.889 37.8917 322.48 37.8917Z" fill="#FF882E"/>
<path d="M301.228 38.3161C300.055 38.3161 299.103 39.2676 299.103 40.4413C299.103 41.615 300.055 42.5665 301.228 42.5665C302.402 42.5665 303.354 41.615 303.354 40.4413C303.354 39.2676 302.402 38.3161 301.228 38.3161Z" fill="#FF882E"/>
<path d="M279.976 37.4674C278.333 37.4674 277.001 38.7995 277.001 40.4427C277.001 42.0859 278.333 43.418 279.976 43.418C281.619 43.418 282.951 42.0859 282.951 40.4427C282.951 38.7995 281.619 37.4674 279.976 37.4674Z" fill="#FF882E"/>
<path d="M258.724 36.6149C256.611 36.6149 254.899 38.3275 254.899 40.4402C254.899 42.5529 256.611 44.2656 258.724 44.2656C260.837 44.2656 262.55 42.5529 262.55 40.4402C262.55 38.3275 260.837 36.6149 258.724 36.6149Z" fill="#FF882E"/>
<path d="M237.472 36.6149C235.359 36.6149 233.647 38.3275 233.647 40.4402C233.647 42.5529 235.359 44.2656 237.472 44.2656C239.585 44.2656 241.297 42.5529 241.297 40.4402C241.297 38.3275 239.585 36.6149 237.472 36.6149Z" fill="#FF882E"/>
<path d="M216.22 36.6149C214.107 36.6149 212.394 38.3275 212.394 40.4402C212.394 42.5529 214.107 44.2656 216.22 44.2656C218.332 44.2656 220.045 42.5529 220.045 40.4402C220.045 38.3275 218.332 36.6149 216.22 36.6149Z" fill="#FF882E"/>
<path d="M194.967 36.6149C192.855 36.6149 191.142 38.3275 191.142 40.4402C191.142 42.5529 192.855 44.2656 194.967 44.2656C197.08 44.2656 198.793 42.5529 198.793 40.4402C198.793 38.3275 197.08 36.6149 194.967 36.6149Z" fill="#FF882E"/>
<path d="M173.715 37.4674C172.072 37.4674 170.74 38.7995 170.74 40.4427C170.74 42.0859 172.072 43.418 173.715 43.418C175.358 43.418 176.69 42.0859 176.69 40.4427C176.69 38.7995 175.358 37.4674 173.715 37.4674Z" fill="#FF882E"/>
<path d="M152.464 37.8917C151.055 37.8917 149.913 39.0335 149.913 40.4419C149.913 41.8504 151.055 42.9922 152.464 42.9922C153.872 42.9922 155.014 41.8504 155.014 40.4419C155.014 39.0335 153.872 37.8917 152.464 37.8917Z" fill="#FF882E"/>
<path d="M131.211 38.3161C130.037 38.3161 129.086 39.2676 129.086 40.4413C129.086 41.615 130.037 42.5665 131.211 42.5665C132.385 42.5665 133.336 41.615 133.336 40.4413C133.336 39.2676 132.385 38.3161 131.211 38.3161Z" fill="#FF882E"/>
<path d="M109.959 38.3161C108.785 38.3161 107.834 39.2676 107.834 40.4413C107.834 41.615 108.785 42.5665 109.959 42.5665C111.133 42.5665 112.084 41.615 112.084 40.4413C112.084 39.2676 111.133 38.3161 109.959 38.3161Z" fill="#FF882E"/>
<path d="M88.7068 37.8917C87.2983 37.8917 86.1565 39.0335 86.1565 40.4419C86.1565 41.8504 87.2983 42.9922 88.7068 42.9922C90.1153 42.9922 91.2571 41.8504 91.2571 40.4419C91.2571 39.0335 90.1153 37.8917 88.7068 37.8917Z" fill="#FF882E"/>
<path d="M67.4546 38.3161C66.2808 38.3161 65.3293 39.2676 65.3293 40.4413C65.3293 41.615 66.2808 42.5665 67.4546 42.5665C68.6283 42.5665 69.5798 41.615 69.5798 40.4413C69.5798 39.2676 68.6283 38.3161 67.4546 38.3161Z" fill="#FF882E"/>
<path d="M46.2027 37.4674C44.5595 37.4674 43.2274 38.7995 43.2274 40.4427C43.2274 42.0859 44.5595 43.418 46.2027 43.418C47.8459 43.418 49.178 42.0859 49.178 40.4427C49.178 38.7995 47.8459 37.4674 46.2027 37.4674Z" fill="#FF882E"/>
<path d="M24.9505 37.4674C23.3073 37.4674 21.9752 38.7995 21.9752 40.4427C21.9752 42.0859 23.3073 43.418 24.9505 43.418C26.5937 43.418 27.9258 42.0859 27.9258 40.4427C27.9258 38.7995 26.5937 37.4674 24.9505 37.4674Z" fill="#FF882E"/>
<path d="M3.6983 37.4674C2.05508 37.4674 0.72301 38.7995 0.72301 40.4427C0.72301 42.0859 2.05508 43.418 3.6983 43.418C5.34151 43.418 6.67358 42.0859 6.67358 40.4427C6.67358 38.7995 5.34151 37.4674 3.6983 37.4674Z" fill="#FF882E"/>
<path d="M343.733 16.6378C342.324 16.6378 341.182 17.7796 341.182 19.188C341.182 20.5965 342.324 21.7383 343.733 21.7383C345.141 21.7383 346.283 20.5965 346.283 19.188C346.283 17.7796 345.141 16.6378 343.733 16.6378Z" fill="#FF882E"/>
<path d="M322.48 16.6378C321.072 16.6378 319.93 17.7796 319.93 19.188C319.93 20.5965 321.072 21.7383 322.48 21.7383C323.889 21.7383 325.031 20.5965 325.031 19.188C325.031 17.7796 323.889 16.6378 322.48 16.6378Z" fill="#FF882E"/>
<path d="M301.228 17.066C300.055 17.066 299.103 18.0175 299.103 19.1912C299.103 20.3649 300.055 21.3164 301.228 21.3164C302.402 21.3164 303.354 20.3649 303.354 19.1912C303.354 18.0175 302.402 17.066 301.228 17.066Z" fill="#FF882E"/>
<path d="M279.976 16.2136C278.333 16.2136 277.001 17.5457 277.001 19.1889C277.001 20.8321 278.333 22.1642 279.976 22.1642C281.619 22.1642 282.951 20.8321 282.951 19.1889C282.951 17.5457 281.619 16.2136 279.976 16.2136Z" fill="#FF882E"/>
<path d="M258.724 16.2136C257.08 16.2136 255.748 17.5457 255.748 19.1889C255.748 20.8321 257.08 22.1642 258.724 22.1642C260.367 22.1642 261.699 20.8321 261.699 19.1889C261.699 17.5457 260.367 16.2136 258.724 16.2136Z" fill="#FF882E"/>
<path d="M237.472 16.2136C235.829 16.2136 234.497 17.5457 234.497 19.1889C234.497 20.8321 235.829 22.1642 237.472 22.1642C239.115 22.1642 240.447 20.8321 240.447 19.1889C240.447 17.5457 239.115 16.2136 237.472 16.2136Z" fill="#FF882E"/>
<path d="M216.22 16.2136C214.577 16.2136 213.244 17.5457 213.244 19.1889C213.244 20.8321 214.577 22.1642 216.22 22.1642C217.863 22.1642 219.195 20.8321 219.195 19.1889C219.195 17.5457 217.863 16.2136 216.22 16.2136Z" fill="#FF882E"/>
<path d="M194.967 16.2136C193.324 16.2136 191.992 17.5457 191.992 19.1889C191.992 20.8321 193.324 22.1642 194.967 22.1642C196.611 22.1642 197.943 20.8321 197.943 19.1889C197.943 17.5457 196.611 16.2136 194.967 16.2136Z" fill="#FF882E"/>
<path d="M173.715 17.066C172.542 17.066 171.59 18.0175 171.59 19.1912C171.59 20.3649 172.542 21.3164 173.715 21.3164C174.889 21.3164 175.841 20.3649 175.841 19.1912C175.841 18.0175 174.889 17.066 173.715 17.066Z" fill="#FF882E"/>
<path d="M152.463 17.066C151.289 17.066 150.338 18.0175 150.338 19.1912C150.338 20.3649 151.289 21.3164 152.463 21.3164C153.637 21.3164 154.588 20.3649 154.588 19.1912C154.588 18.0175 153.637 17.066 152.463 17.066Z" fill="#FF882E"/>
<path d="M131.211 17.066C130.037 17.066 129.086 18.0175 129.086 19.1912C129.086 20.3649 130.037 21.3164 131.211 21.3164C132.384 21.3164 133.336 20.3649 133.336 19.1912C133.336 18.0175 132.384 17.066 131.211 17.066Z" fill="#FF882E"/>
<path d="M109.959 17.066C108.785 17.066 107.834 18.0175 107.834 19.1912C107.834 20.3649 108.785 21.3164 109.959 21.3164C111.133 21.3164 112.084 20.3649 112.084 19.1912C112.084 18.0175 111.133 17.066 109.959 17.066Z" fill="#FF882E"/>
<path d="M88.7068 16.6378C87.2983 16.6378 86.1565 17.7796 86.1565 19.188C86.1565 20.5965 87.2983 21.7383 88.7068 21.7383C90.1153 21.7383 91.2571 20.5965 91.2571 19.188C91.2571 17.7796 90.1153 16.6378 88.7068 16.6378Z" fill="#FF882E"/>
<path d="M67.4544 16.6378C66.0459 16.6378 64.9041 17.7796 64.9041 19.188C64.9041 20.5965 66.0459 21.7383 67.4544 21.7383C68.8628 21.7383 70.0046 20.5965 70.0046 19.188C70.0046 17.7796 68.8628 16.6378 67.4544 16.6378Z" fill="#FF882E"/>
<path d="M46.2028 16.2136C44.5595 16.2136 43.2275 17.5457 43.2275 19.1889C43.2275 20.8321 44.5595 22.1642 46.2028 22.1642C47.846 22.1642 49.178 20.8321 49.178 19.1889C49.178 17.5457 47.846 16.2136 46.2028 16.2136Z" fill="#FF882E"/>
<path d="M24.9505 16.2136C23.3073 16.2136 21.9752 17.5457 21.9752 19.1889C21.9752 20.8321 23.3073 22.1642 24.9505 22.1642C26.5937 22.1642 27.9258 20.8321 27.9258 19.1889C27.9258 17.5457 26.5937 16.2136 24.9505 16.2136Z" fill="#FF882E"/>
<path d="M3.69824 16.2136C2.05502 16.2136 0.722949 17.5457 0.722949 19.1889C0.722949 20.8321 2.05502 22.1642 3.69824 22.1642C5.34145 22.1642 6.67352 20.8321 6.67352 19.1889C6.67352 17.5457 5.34145 16.2136 3.69824 16.2136Z" fill="#FF882E"/>
<path d="M343.733 -4.61222C342.324 -4.61222 341.182 -3.47044 341.182 -2.06197C341.182 -0.653502 342.324 0.488281 343.733 0.488281C345.141 0.488281 346.283 -0.653501 346.283 -2.06197C346.283 -3.47044 345.141 -4.61222 343.733 -4.61222Z" fill="#FF882E"/>
<path d="M322.48 -4.61222C321.072 -4.61222 319.93 -3.47044 319.93 -2.06197C319.93 -0.653502 321.072 0.488281 322.48 0.488281C323.889 0.488281 325.031 -0.653501 325.031 -2.06197C325.031 -3.47044 323.889 -4.61222 322.48 -4.61222Z" fill="#FF882E"/>
<path d="M301.228 -4.18793C300.055 -4.18793 299.103 -3.23644 299.103 -2.06271C299.103 -0.888991 300.055 0.0624997 301.228 0.0624998C302.402 0.0624999 303.354 -0.888991 303.354 -2.06271C303.354 -3.23644 302.402 -4.18793 301.228 -4.18793Z" fill="#FF882E"/>
<path d="M279.976 -4.18793C278.802 -4.18793 277.851 -3.23644 277.851 -2.06271C277.851 -0.888991 278.802 0.0624997 279.976 0.0624998C281.15 0.0624999 282.101 -0.888991 282.101 -2.06271C282.101 -3.23644 281.15 -4.18793 279.976 -4.18793Z" fill="#FF882E"/>
<path d="M258.724 -4.18793C257.55 -4.18793 256.598 -3.23644 256.598 -2.06271C256.598 -0.888991 257.55 0.0624997 258.724 0.0624998C259.897 0.0624999 260.849 -0.888991 260.849 -2.06271C260.849 -3.23644 259.897 -4.18793 258.724 -4.18793Z" fill="#FF882E"/>
<path d="M237.472 -5.03654C235.829 -5.03654 234.497 -3.70445 234.497 -2.06124C234.497 -0.418028 235.829 0.914062 237.472 0.914062C239.115 0.914062 240.447 -0.418028 240.447 -2.06124C240.447 -3.70445 239.115 -5.03654 237.472 -5.03654Z" fill="#FF882E"/>
<path d="M216.22 -5.03654C214.577 -5.03654 213.244 -3.70445 213.244 -2.06124C213.244 -0.418028 214.577 0.914062 216.22 0.914062C217.863 0.914062 219.195 -0.418028 219.195 -2.06124C219.195 -3.70445 217.863 -5.03654 216.22 -5.03654Z" fill="#FF882E"/>
<path d="M194.968 -4.61222C193.559 -4.61222 192.417 -3.47044 192.417 -2.06197C192.417 -0.653502 193.559 0.488281 194.968 0.488281C196.376 0.488281 197.518 -0.653501 197.518 -2.06197C197.518 -3.47044 196.376 -4.61222 194.968 -4.61222Z" fill="#FF882E"/>
<path d="M173.715 -4.18793C172.542 -4.18793 171.59 -3.23644 171.59 -2.06271C171.59 -0.888991 172.542 0.0624997 173.715 0.0624998C174.889 0.0624999 175.841 -0.888991 175.841 -2.06271C175.841 -3.23644 174.889 -4.18793 173.715 -4.18793Z" fill="#FF882E"/>
<path d="M152.463 -4.18793C151.289 -4.18793 150.338 -3.23644 150.338 -2.06271C150.338 -0.888991 151.289 0.0624997 152.463 0.0624998C153.637 0.0624999 154.588 -0.888991 154.588 -2.06271C154.588 -3.23644 153.637 -4.18793 152.463 -4.18793Z" fill="#FF882E"/>
<path d="M131.211 -4.18793C130.037 -4.18793 129.086 -3.23644 129.086 -2.06271C129.086 -0.888991 130.037 0.0624997 131.211 0.0624998C132.384 0.0624999 133.336 -0.888991 133.336 -2.06271C133.336 -3.23644 132.384 -4.18793 131.211 -4.18793Z" fill="#FF882E"/>
<path d="M109.959 -5.03654C108.316 -5.03654 106.984 -3.70445 106.984 -2.06124C106.984 -0.418028 108.316 0.914062 109.959 0.914062C111.602 0.914062 112.934 -0.418028 112.934 -2.06124C112.934 -3.70445 111.602 -5.03654 109.959 -5.03654Z" fill="#FF882E"/>
<path d="M88.7068 -5.03654C87.0636 -5.03654 85.7316 -3.70445 85.7316 -2.06124C85.7316 -0.418028 87.0636 0.914062 88.7068 0.914062C90.3501 0.914062 91.6821 -0.418028 91.6821 -2.06124C91.6821 -3.70445 90.3501 -5.03654 88.7068 -5.03654Z" fill="#FF882E"/>
<path d="M67.4544 -5.03654C65.8112 -5.03654 64.4791 -3.70445 64.4791 -2.06124C64.4791 -0.418028 65.8112 0.914062 67.4544 0.914062C69.0976 0.914062 70.4297 -0.418028 70.4297 -2.06124C70.4297 -3.70445 69.0976 -5.03654 67.4544 -5.03654Z" fill="#FF882E"/>
<path d="M46.2022 -5.46474C44.3242 -5.46474 42.8018 -3.94236 42.8018 -2.0644C42.8018 -0.186445 44.3242 1.33594 46.2022 1.33594C48.0801 1.33594 49.6025 -0.186445 49.6025 -2.0644C49.6025 -3.94236 48.0801 -5.46474 46.2022 -5.46474Z" fill="#FF882E"/>
<path d="M24.9505 -5.46474C23.0725 -5.46474 21.5501 -3.94236 21.5501 -2.0644C21.5501 -0.186445 23.0725 1.33594 24.9505 1.33594C26.8284 1.33594 28.3508 -0.186445 28.3508 -2.0644C28.3508 -3.94236 26.8284 -5.46474 24.9505 -5.46474Z" fill="#FF882E"/>
<path d="M3.69828 -5.46474C1.82032 -5.46474 0.297922 -3.94236 0.297921 -2.0644C0.297921 -0.186445 1.82032 1.33594 3.69828 1.33594C5.57623 1.33594 7.09863 -0.186445 7.09863 -2.0644C7.09863 -3.94236 5.57624 -5.46474 3.69828 -5.46474Z" fill="#FF882E"/>
</g>
</g>
<defs>
<clipPath id="clip0_2583_1106">
<rect width="348" height="133" fill="white" transform="translate(0 -5)"/>
</clipPath>
</defs>
</svg>
